<svg width="106" height="125" viewBox="0 0 106 125" fill="none" xmlns="http://www.w3.org/2000/svg">
  <path d="M105.495 23.9262C105.495 22.2349 104.823 20.6128 103.627 19.4169C102.431 18.2209 100.809 17.5491 99.1177 17.5491C81.4146 17.5491 68.5073 12.7024 57.3345 1.82296C56.1424 0.65449 54.5397 0 52.8705 0C51.2012 0 49.5985 0.65449 48.4064 1.82296C37.2209 12.7024 24.3262 17.5491 6.62323 17.5491C4.9319 17.5491 3.30984 18.2209 2.11389 19.4169C0.917943 20.6128 0.246065 22.2349 0.246065 23.9262C0.246065 26.8852 0.246066 29.9463 0.131277 33.1986C-0.455422 64.1789 -1.2717 106.613 50.7787 124.647C52.1335 125.118 53.6074 125.118 54.9622 124.647C107.013 106.613 106.196 64.1789 105.61 33.1731C105.546 29.9463 105.495 26.8852 105.495 23.9262ZM83.4936 88.4887C77.557 83.7748 71.1452 79.6926 64.3621 76.3083C64.3163 76.2865 64.2775 76.2522 64.2504 76.2093C64.2233 76.1664 64.209 76.1167 64.2091 76.0659V69.6888C65.1049 68.1667 65.7307 66.5011 66.0584 64.7656C67.0533 64.4467 67.9461 62.8524 68.7879 59.8679C69.5531 57.1513 69.5659 55.3912 68.7879 54.4856C68.6303 54.2985 68.4356 54.1464 68.216 54.0388C67.9964 53.9312 67.7568 53.8705 67.5124 53.8606C67.6827 53.3213 67.819 52.7718 67.9206 52.2153C68.8261 46.731 68.3542 42.7644 66.5048 40.4176C65.7993 39.4644 64.7696 38.8021 63.6096 38.5554C62.6556 37.0747 61.3383 35.8628 59.7833 35.0352C57.3619 33.6319 54.556 33.0376 51.7736 33.3389C50.6789 33.3922 49.5971 33.5983 48.5595 33.9511C47.3754 34.3903 46.2558 34.9866 45.2306 35.724C43.9167 36.5563 42.7127 37.5505 41.6466 38.683C39.7392 40.5575 38.3883 42.9238 37.7438 45.5193C37.2382 47.7055 37.2382 49.9782 37.7438 52.1643C37.8455 52.7207 37.9818 53.2702 38.1519 53.8096C37.9076 53.8195 37.668 53.8801 37.4484 53.9877C37.2288 54.0953 37.034 54.2475 36.8765 54.4346C36.124 55.3401 36.1368 57.1002 36.8765 59.8169C37.7183 62.7887 38.6111 64.3957 39.6059 64.7146C39.9314 66.4708 40.557 68.1578 41.4553 69.7015V76.0787C41.4554 76.1294 41.441 76.1792 41.4139 76.2221C41.3868 76.265 41.3481 76.2993 41.3023 76.321C34.5192 79.7053 28.1074 83.7875 22.1708 88.5014C12.0948 72.2779 12.4775 52.1005 12.8346 33.4537C12.8346 32.3186 12.8346 31.2089 12.8346 30.1121C28.7903 29.1045 41.7104 24.2451 52.8832 14.9599C64.056 24.2451 76.9761 29.1045 92.7915 30.1121C92.7915 31.2089 92.7915 32.3186 92.7915 33.4537C93.2124 52.0878 93.5823 72.2652 83.4936 88.4887Z" fill="#F4F4F4"/>
</svg>
