<svg width="100" height="125" viewBox="0 0 100 125" fill="none" xmlns="http://www.w3.org/2000/svg">
  <path d="M95.6565 0.000137654H4.30885C3.16607 0.000137654 2.0701 0.444737 1.26203 1.23613C0.453968 2.02752 9.58694e-07 3.10088 9.58694e-07 4.22007V120.741C-0.000472183 121.436 0.174193 122.12 0.508492 122.733C0.84279 123.345 1.32638 123.868 1.91634 124.253C2.5063 124.639 3.18438 124.876 3.89038 124.944C4.59638 125.011 5.30848 124.907 5.96345 124.64L27.1285 115.998L48.2936 124.64C48.8202 124.857 49.3856 124.969 49.9568 124.969C50.528 124.969 51.0935 124.857 51.62 124.64L72.7851 115.998L93.9502 124.64C94.6092 124.925 95.3307 125.044 96.0486 124.985C96.7666 124.927 97.4581 124.693 98.0599 124.305C98.6617 123.917 99.1546 123.388 99.4935 122.765C99.8324 122.142 100.006 121.447 99.9998 120.741V4.16944C99.9862 3.05317 99.5215 1.98767 98.7074 1.20624C97.8934 0.424814 96.7963 -0.00887308 95.6565 0.000137654ZM91.3821 114.411L74.4914 107.524C73.9649 107.307 73.3994 107.196 72.8282 107.196C72.257 107.196 71.6915 107.307 71.165 107.524L50.0171 116.183L28.8521 107.524C28.3255 107.307 27.7601 107.196 27.1889 107.196C26.6177 107.196 26.0522 107.307 25.5256 107.524L8.65217 114.411V8.44001H91.3821V114.411Z" fill="#F4F4F4"/>
  <path d="M23.4057 38.1146H57.5318C58.6745 38.1146 59.7705 37.67 60.5786 36.8786C61.3866 36.0872 61.8406 35.0139 61.8406 33.8947C61.8406 32.7755 61.3866 31.7021 60.5786 30.9107C59.7705 30.1193 58.6745 29.6747 57.5318 29.6747H23.4057C22.2629 29.6747 21.1669 30.1193 20.3588 30.9107C19.5508 31.7021 19.0968 32.7755 19.0968 33.8947C19.0968 35.0139 19.5508 36.0872 20.3588 36.8786C21.1669 37.67 22.2629 38.1146 23.4057 38.1146Z" fill="#F4F4F4"/>
  <path d="M23.4057 60.7673H57.5318C58.6745 60.7673 59.7705 60.3227 60.5786 59.5313C61.3866 58.7399 61.8406 57.6665 61.8406 56.5473C61.8406 55.4281 61.3866 54.3548 60.5786 53.5634C59.7705 52.772 58.6745 52.3274 57.5318 52.3274H23.4057C22.2629 52.3274 21.1669 52.772 20.3588 53.5634C19.5508 54.3548 19.0968 55.4281 19.0968 56.5473C19.0968 57.6665 19.5508 58.7399 20.3588 59.5313C21.1669 60.3227 22.2629 60.7673 23.4057 60.7673Z" fill="#F4F4F4"/>
  <path d="M23.4057 83.386H57.5318C58.6745 83.386 59.7705 82.9414 60.5786 82.15C61.3866 81.3587 61.8406 80.2853 61.8406 79.1661C61.8406 78.0469 61.3866 76.9735 60.5786 76.1822C59.7705 75.3908 58.6745 74.9462 57.5318 74.9462H23.4057C22.2629 74.9462 21.1669 75.3908 20.3588 76.1822C19.5508 76.9735 19.0968 78.0469 19.0968 79.1661C19.0968 80.2853 19.5508 81.3587 20.3588 82.15C21.1669 82.9414 22.2629 83.386 23.4057 83.386Z" fill="#F4F4F4"/>
  <path d="M72.5438 38.1146H76.6458C77.7886 38.1146 78.8846 37.67 79.6927 36.8786C80.5007 36.0872 80.9547 35.0139 80.9547 33.8947C80.9547 32.7755 80.5007 31.7021 79.6927 30.9107C78.8846 30.1193 77.7886 29.6747 76.6458 29.6747H72.5438C71.401 29.6747 70.3051 30.1193 69.497 30.9107C68.6889 31.7021 68.235 32.7755 68.235 33.8947C68.235 35.0139 68.6889 36.0872 69.497 36.8786C70.3051 37.67 71.401 38.1146 72.5438 38.1146Z" fill="#F4F4F4"/>
  <path d="M72.5438 60.7673H76.6458C77.7886 60.7673 78.8846 60.3227 79.6927 59.5313C80.5007 58.7399 80.9547 57.6665 80.9547 56.5473C80.9547 55.4281 80.5007 54.3548 79.6927 53.5634C78.8846 52.772 77.7886 52.3274 76.6458 52.3274H72.5438C71.401 52.3274 70.3051 52.772 69.497 53.5634C68.6889 54.3548 68.235 55.4281 68.235 56.5473C68.235 57.6665 68.6889 58.7399 69.497 59.5313C70.3051 60.3227 71.401 60.7673 72.5438 60.7673Z" fill="#F4F4F4"/>
  <path d="M72.5438 83.386H76.6458C77.7886 83.386 78.8846 82.9414 79.6927 82.15C80.5007 81.3587 80.9547 80.2853 80.9547 79.1661C80.9547 78.0469 80.5007 76.9735 79.6927 76.1822C78.8846 75.3908 77.7886 74.9462 76.6458 74.9462H72.5438C71.401 74.9462 70.3051 75.3908 69.497 76.1822C68.6889 76.9735 68.235 78.0469 68.235 79.1661C68.235 80.2853 68.6889 81.3587 69.497 82.15C70.3051 82.9414 71.401 83.386 72.5438 83.386Z" fill="#F4F4F4"/>
</svg>
