<svg width="138" height="124" viewBox="0 0 138 124" fill="none" xmlns="http://www.w3.org/2000/svg">
<circle cx="89.2947" cy="110.006" r="8" stroke="#F4F4F4" stroke-width="4"/>
<circle cx="46.2947" cy="110.006" r="8" stroke="#F4F4F4" stroke-width="4"/>
<path d="M18.0428 34.0063L34.0428 93.0063H99.5428C100.647 93.0063 101.543 93.9018 101.543 95.0063C101.543 96.1109 100.647 97.0063 99.5428 97.0063H31.0428L14.2778 34.8774C14.1284 34.3236 13.7483 33.8606 13.2342 33.6061L11.7962 32.8942C11.387 32.6916 11.2698 32.1628 11.555 31.8062L12.5905 30.5118C12.8294 30.2133 13.2443 30.1221 13.5862 30.2931L14.9776 30.9888C16.2921 31.646 17.365 32.7023 18.0428 34.0063Z" fill="#F4F4F4"/>
<path d="M15.7921 40.5013L115.801 40.5013C120.081 40.5013 122.985 44.8535 121.341 48.8051L108.24 80.3102C107.309 82.5481 105.124 84.0063 102.7 84.0063H27.7129L15.7921 40.5013Z" fill="#F4F4F4"/>
</svg>
