<svg width="272" height="102" viewBox="0 0 272 102" fill="none" xmlns="http://www.w3.org/2000/svg">
<path d="M0 51C0 22.8335 22.8335 0 51 0H202C240.66 0 272 31.3401 272 70V82C272 93.0457 263.046 102 252 102H51C22.8335 102 0 79.1665 0 51V51Z" fill="#3994B0"/>
<path d="M44.3848 35.2773V38.5H34.7168V66H30.7422V38.5H21.0742V35.2773H44.3848ZM69.2207 35.2773V38.5H53.1074V48.8125H68.4688V52.0352H53.1074V62.7773H69.543V66H49.1328V35.2773H69.2207ZM98.7617 64.9258C96.112 65.7852 93.2474 66.2148 90.168 66.2148C79.4258 66.2148 74.0547 60.8796 74.0547 50.209C74.0547 40.1113 79.4258 35.0625 90.168 35.0625C93.2474 35.0625 96.112 35.4922 98.7617 36.3516V39.7891C96.112 38.7865 93.3906 38.2852 90.5977 38.2852C82.2188 38.2852 78.0293 42.2598 78.0293 50.209C78.0293 58.7311 82.2188 62.9922 90.5977 62.9922C93.3906 62.9922 96.112 62.4909 98.7617 61.4883V64.9258ZM105.336 66V35.2773H118.441C124.285 35.2773 127.207 37.6621 127.207 42.4316C127.207 45.9264 125.302 48.4258 121.492 49.9297C125.56 50.6888 127.594 53.0163 127.594 56.9121C127.594 62.9707 124.393 66 117.99 66H105.336ZM117.754 62.7773C121.421 62.7773 123.254 60.9154 123.254 57.1914C123.254 53.5677 120.798 51.7559 115.885 51.7559H114.166V49.1562C120.038 48.3685 122.975 46.2487 122.975 42.7969C122.975 39.9323 121.342 38.5 118.076 38.5H109.311V62.7773H117.754ZM136.381 54.6348C136.381 60.0632 138.637 62.7773 143.148 62.7773C147.66 62.7773 149.916 60.0632 149.916 54.6348C149.916 49.321 147.66 46.6641 143.148 46.6641C138.637 46.6641 136.381 49.321 136.381 54.6348ZM132.406 54.7207C132.406 47.2012 135.987 43.4414 143.148 43.4414C150.31 43.4414 153.891 47.2012 153.891 54.7207C153.891 62.2259 150.31 65.9785 143.148 65.9785C136.016 65.9785 132.435 62.2259 132.406 54.7207ZM165.02 54.7207L156.576 43.4414H161.195L167.318 51.627L173.441 43.4414H178.061L169.639 54.7207L178.061 66H173.441L167.318 57.8145L161.195 66H156.576L165.02 54.7207Z" fill="#F4F4F4"/>
<path d="M212.682 46.7589C215.023 49.1017 215.023 52.8983 212.682 55.2411L196.564 71.3709C192.785 75.1528 186.32 72.4763 186.32 67.1298V34.8702C186.32 29.5237 192.785 26.8472 196.564 30.6291L212.682 46.7589Z" fill="#02C39A"/>
<path d="M213.359 55.9179C215.702 53.5769 219.498 53.5769 221.841 55.9179L237.971 72.0358C241.753 75.815 239.076 82.28 233.73 82.28H201.47C196.124 82.28 193.447 75.8149 197.229 72.0358L213.359 55.9179Z" fill="#02C39A"/>
<path d="M222.518 55.2411C220.177 52.8983 220.177 49.1017 222.518 46.7589L238.636 30.6292C242.415 26.8472 248.88 29.5237 248.88 34.8702V67.1298C248.88 72.4763 242.415 75.1528 238.636 71.3709L222.518 55.2411Z" fill="#02C39A"/>
<path d="M221.841 46.0821C219.498 48.4231 215.702 48.4231 213.359 46.0821L197.229 29.9642C193.447 26.1851 196.124 19.72 201.47 19.72L233.73 19.72C239.076 19.72 241.753 26.1851 237.971 29.9642L221.841 46.0821Z" fill="#02C39A"/>
</svg>
