<svg width="400" height="172" viewBox="0 0 400 172" fill="none" xmlns="http://www.w3.org/2000/svg">
  <path d="M55.4688 63.3125V68H41.4062V108H35.625V68H21.5625V63.3125H55.4688ZM91.5938 63.3125V68H68.1562V83H90.5V87.6875H68.1562V103.312H92.0625V108H62.375V63.3125H91.5938ZM134.562 106.438C130.708 107.688 126.542 108.312 122.062 108.312C106.438 108.312 98.625 100.552 98.625 85.0312C98.625 70.3438 106.438 63 122.062 63C126.542 63 130.708 63.625 134.562 64.875V69.875C130.708 68.4167 126.75 67.6875 122.688 67.6875C110.5 67.6875 104.406 73.4688 104.406 85.0312C104.406 97.4271 110.5 103.625 122.688 103.625C126.75 103.625 130.708 102.896 134.562 101.438V106.438ZM144.125 108V63.3125H163.188C171.688 63.3125 175.938 66.7812 175.938 73.7188C175.938 78.8021 173.167 82.4375 167.625 84.625C173.542 85.7292 176.5 89.1146 176.5 94.7812C176.5 103.594 171.844 108 162.531 108H144.125ZM162.188 103.312C167.521 103.312 170.188 100.604 170.188 95.1875C170.188 89.9167 166.615 87.2812 159.469 87.2812H156.969V83.5C165.51 82.3542 169.781 79.2708 169.781 74.25C169.781 70.0833 167.406 68 162.656 68H149.906V103.312H162.188ZM189.281 91.4688C189.281 99.3646 192.562 103.312 199.125 103.312C205.688 103.312 208.969 99.3646 208.969 91.4688C208.969 83.7396 205.688 79.875 199.125 79.875C192.562 79.875 189.281 83.7396 189.281 91.4688ZM183.5 91.5938C183.5 80.6562 188.708 75.1875 199.125 75.1875C209.542 75.1875 214.75 80.6562 214.75 91.5938C214.75 102.51 209.542 107.969 199.125 107.969C188.75 107.969 183.542 102.51 183.5 91.5938ZM230.938 91.5938L218.656 75.1875H225.375L234.281 87.0938L243.188 75.1875H249.906L237.656 91.5938L249.906 108H243.188L234.281 96.0938L225.375 108H218.656L230.938 91.5938Z" fill="#F4F4F4"/>
  <path d="M315.547 81.765C317.524 84.0266 317.524 87.4021 315.547 89.6637L284.517 125.153C280.869 129.324 274 126.745 274 121.203V50.2253C274 44.684 280.869 42.1043 284.517 46.2759L315.547 81.765Z" fill="#02C39A"/>
  <path d="M315.486 92.0122C317.876 89.2825 322.124 89.2825 324.514 92.0122L356.318 128.333C359.715 132.212 356.96 138.286 351.804 138.286H288.196C283.04 138.286 280.285 132.212 283.682 128.333L315.486 92.0122Z" fill="#02C39A"/>
  <path d="M324.453 89.6636C322.476 87.402 322.476 84.0265 324.453 81.7649L355.483 46.2758C359.131 42.1043 366 44.6839 366 50.2252V121.203C366 126.745 359.131 129.324 355.483 125.153L324.453 89.6636Z" fill="#02C39A"/>
  <path d="M324.514 79.4164C322.124 82.1461 317.876 82.1461 315.486 79.4164L283.682 43.0955C280.285 39.2165 283.04 33.1428 288.196 33.1428L351.804 33.1428C356.96 33.1428 359.715 39.2165 356.318 43.0955L324.514 79.4164Z" fill="#02C39A"/>
</svg>
