<svg width="151" height="125" viewBox="0 0 151 125" fill="none" xmlns="http://www.w3.org/2000/svg">
<path d="M95.9378 76.2498L80.9378 101.562L79.3753 84.9999L82.5003 76.2498H67.1878L70.3128 84.9999L68.7503 101.562L53.7503 76.2498C41.5628 76.8748 31.8752 87.1874 31.8752 99.3749V115.625C31.8752 120.937 35.9377 125 41.2503 125H108.75C114.063 125 118.125 120.937 118.125 115.625V99.3749C117.813 86.8749 108.125 76.8748 95.9378 76.2498Z" fill="#F4F4F4"/>
<path d="M74.6878 65.9374C85.3128 65.9374 94.0628 50.9374 94.0628 40.3123C94.0628 29.6873 85.3128 20.9373 74.6878 20.9373C64.0628 20.9373 55.3127 29.6873 55.3127 40.3123C55.3127 50.9374 64.0628 65.9374 74.6878 65.9374Z" fill="#F4F4F4"/>
<path d="M131.875 45.6247L119.375 66.5622L118.125 52.8122L120.625 45.6247H108.125L110.625 52.8122L109.375 66.5622L99.0623 49.0622C96.5623 57.1872 91.2498 65.9372 84.0623 69.6872H96.5623C107.187 70.3122 116.562 76.8748 120.937 85.9373H142.5C146.875 85.9373 150.312 82.4998 150.312 78.1248V64.6872C150 54.6872 141.875 46.2497 131.875 45.6247Z" fill="#F4F4F4"/>
<path d="M114.375 37.1875C123.125 37.1875 130.312 25 130.312 15.9375C130.312 6.87501 123.125 0 114.375 0C105.625 0 98.4373 7.18751 98.4373 15.9375C98.4373 24.6875 105.625 37.1875 114.375 37.1875Z" fill="#F4F4F4"/>
<path d="M53.1251 69.9997H65.6251C58.4376 65.9372 53.1251 58.1247 50.6251 49.9997L40.6251 66.5622L39.3751 52.8122L41.8751 45.6247H29.375L31.875 52.8122L30.625 66.5622L18.125 45.6247C8.12501 46.2497 0 54.6872 0 64.6872V78.1248C0 82.4998 3.43751 85.9373 7.81251 85.9373H28.4375C33.1251 76.8748 42.1876 70.6247 53.1251 69.9997Z" fill="#F4F4F4"/>
<path d="M35.6245 37.1875C44.3745 37.1875 51.5621 25 51.5621 15.9375C51.5621 6.87501 44.3745 0 35.6245 0C26.8745 0 19.687 7.18751 19.687 15.9375C19.687 24.6875 26.8745 37.1875 35.6245 37.1875Z" fill="#F4F4F4"/>
</svg>
