<svg width="125" height="125" viewBox="0 0 125 125" fill="none" xmlns="http://www.w3.org/2000/svg">
<path d="M121.926 104.508H109.287H68.8197H56.1804H15.7111H3.07377C1.37705 104.508 0 105.885 0 107.582V121.926C0 123.623 1.37705 125 3.07377 125H15.7111C17.4078 125 18.7849 123.623 18.7849 121.926V110.656H53.1066V121.926C53.1066 123.623 54.4837 125 56.1804 125H68.8197C70.5165 125 71.8935 123.623 71.8935 121.926V110.656H106.213V121.926C106.213 123.623 107.59 125 109.287 125H121.926C123.623 125 125 123.623 125 121.926V107.582C125 105.885 123.623 104.508 121.926 104.508ZM12.6373 118.852H6.14755V110.656H12.6373V118.852ZM65.746 118.852H59.2542V110.656H65.746V118.852ZM118.853 118.852H112.361V110.656H118.853V118.852Z" fill="#F4F4F4"/>
<path d="M8.19678 57.2873V99.3857C8.19678 101.082 9.57383 102.46 11.2706 102.46H56.7993C58.496 102.46 59.8731 101.082 59.8731 99.3857V57.2873C59.8731 55.5906 58.496 54.2136 56.7993 54.2136H41.6046H27.5923H11.2706C9.57383 54.2136 8.19678 55.5906 8.19678 57.2873ZM30.6661 60.3611H38.5308V71.3509H30.6661V60.3611ZM14.3443 60.3611H24.5185V74.4246C24.5185 76.1214 25.8956 77.4984 27.5923 77.4984H41.6046C43.3013 77.4984 44.6784 76.1214 44.6784 74.4246V60.3611H53.7255V96.312H14.3443V60.3611Z" fill="#F4F4F4"/>
<path d="M113.73 54.2136H98.5371H84.5207H68.201C66.5042 54.2136 65.1272 55.5906 65.1272 57.2873V99.3857C65.1272 101.082 66.5042 102.46 68.201 102.46H113.73C115.426 102.46 116.803 101.082 116.803 99.3857V57.2873C116.803 55.5906 115.426 54.2136 113.73 54.2136ZM87.5944 60.3611H95.4633V71.3509H87.5944V60.3611ZM110.656 96.312H71.2747V60.3611H81.4469V74.4246C81.4469 76.1214 82.8239 77.4984 84.5207 77.4984H98.5371C100.234 77.4984 101.611 76.1214 101.611 74.4246V60.3611H110.656V96.312Z" fill="#F4F4F4"/>
<path d="M116.803 5.12339C116.803 3.42667 115.426 2.04962 113.73 2.04962H98.5371H84.5207H68.201C66.5042 2.04962 65.1272 3.42667 65.1272 5.12339V47.2218C65.1272 48.9185 66.5042 50.2956 68.201 50.2956H113.73C115.426 50.2956 116.803 48.9185 116.803 47.2218V5.12339ZM87.5944 8.19717H95.4633V19.1849H87.5944V8.19717ZM110.656 44.148H71.2747V8.19717H81.4469V22.2587C81.4469 23.9554 82.8239 25.3324 84.5207 25.3324H98.5371C100.234 25.3324 101.611 23.9554 101.611 22.2587V8.19717H110.656V44.148Z" fill="#F4F4F4"/>
<path d="M39.5514 0H29.6457C27.9489 0 26.5719 1.37705 26.5719 3.07377V20.1988L17.6436 12.9795C16.7215 12.2316 15.453 12.082 14.3854 12.5943C13.3178 13.1066 12.6375 14.1844 12.6375 15.3689V26.6394C12.6375 27.4488 12.9551 28.2234 13.5247 28.7992L32.4121 47.9324C32.4162 47.9365 32.4244 47.9385 32.4285 47.9447C32.4346 47.9488 32.4366 47.957 32.4407 47.9611C32.6518 48.1701 32.9039 48.293 33.1518 48.4283C33.2543 48.4836 33.3383 48.5779 33.4428 48.6209C33.8157 48.7705 34.2071 48.8484 34.6006 48.8484C34.994 48.8484 35.3875 48.7705 35.7584 48.6209C35.8629 48.5779 35.9469 48.4857 36.0494 48.4283C36.2973 48.2951 36.5494 48.1701 36.7604 47.9611C36.7645 47.957 36.7666 47.9488 36.7727 47.9447C36.7768 47.9385 36.785 47.9365 36.7891 47.9324L55.6764 28.7992C56.244 28.2254 56.5637 27.4488 56.5637 26.6394V15.3689C56.5637 14.1844 55.8834 13.1066 54.8137 12.5943C53.7461 12.082 52.4777 12.2316 51.5555 12.9795L42.6293 20.1988V3.07377C42.6252 1.37705 41.2481 0 39.5514 0ZM50.4121 25.3791L34.5985 41.3976L18.785 25.3791V21.8094L27.7112 29.0287C27.7461 29.0574 27.783 29.0717 27.8178 29.0984C27.9059 29.1619 27.9961 29.2213 28.0903 29.2766C28.1744 29.3258 28.2563 29.373 28.3424 29.4119C28.4346 29.4549 28.5289 29.4898 28.6252 29.5246C28.7215 29.5594 28.8157 29.5902 28.9141 29.6148C29.0063 29.6394 29.1026 29.6537 29.201 29.666C29.3055 29.6824 29.41 29.6947 29.5145 29.6988C29.5575 29.7008 29.5985 29.7131 29.6457 29.7131C29.701 29.7131 29.7543 29.6988 29.8075 29.6967C29.91 29.6906 30.0104 29.6803 30.1088 29.666C30.2133 29.6496 30.3137 29.6271 30.4121 29.6045C30.5022 29.5799 30.5903 29.5533 30.6785 29.5205C30.7809 29.4836 30.8772 29.4447 30.9715 29.3996C31.0576 29.3566 31.1375 29.3135 31.2174 29.2664C31.3075 29.2131 31.3957 29.1537 31.4797 29.0922C31.5535 29.0369 31.6252 28.9754 31.6948 28.9119C31.7768 28.8381 31.8526 28.7623 31.9264 28.6803C31.9612 28.6414 32.0002 28.6127 32.033 28.5717C32.0616 28.5369 32.076 28.5 32.1026 28.4652C32.1662 28.3771 32.2276 28.2848 32.283 28.1906C32.3301 28.1066 32.3772 28.0266 32.4162 27.9406C32.4592 27.8504 32.494 27.7562 32.5289 27.6598C32.5658 27.5615 32.5965 27.4652 32.6211 27.3668C32.6436 27.2766 32.658 27.1844 32.6703 27.0922C32.6867 26.9795 32.701 26.8709 32.7051 26.7582C32.7071 26.7152 32.7174 26.6783 32.7174 26.6353V6.14345H36.4756V26.6353C36.4756 26.6783 36.4858 26.7152 36.4879 26.7582C36.492 26.8709 36.5063 26.9795 36.5227 27.0922C36.5371 27.1844 36.5514 27.2766 36.5719 27.3648C36.5965 27.4652 36.6293 27.5615 36.6641 27.6598C36.6989 27.7541 36.7317 27.8504 36.7768 27.9406C36.8178 28.0266 36.8629 28.1086 36.9121 28.1906C36.9674 28.2848 37.0268 28.3771 37.0903 28.4652C37.117 28.5 37.1334 28.5369 37.16 28.5717C37.1928 28.6127 37.2338 28.6414 37.2686 28.6803C37.3403 28.7623 37.4141 28.8381 37.494 28.9098C37.5678 28.9754 37.6416 29.0389 37.7194 29.0963C37.7994 29.1557 37.8813 29.2111 37.9653 29.2623C38.0535 29.3135 38.1395 29.3627 38.2297 29.4037C38.3178 29.4467 38.408 29.4816 38.5002 29.5164C38.5985 29.5533 38.6949 29.582 38.7932 29.6086C38.8854 29.6312 38.9776 29.6496 39.0719 29.6639C39.1826 29.6824 39.2912 29.6926 39.4039 29.6988C39.4551 29.7008 39.5002 29.7131 39.5514 29.7131C39.5924 29.7131 39.6293 29.7029 39.6703 29.7008C39.7871 29.6967 39.8998 29.6824 40.0145 29.666C40.1047 29.6516 40.1908 29.6373 40.2768 29.6189C40.3813 29.5922 40.4838 29.5594 40.5842 29.5225C40.6744 29.4898 40.7625 29.457 40.8485 29.416C40.9387 29.373 41.0248 29.3238 41.1108 29.2746C41.2031 29.2213 41.2932 29.1619 41.3793 29.0984C41.4141 29.0717 41.451 29.0553 41.4858 29.0287L50.4121 21.8094V25.3791Z" fill="#F4F4F4"/>
</svg>
