<svg width="121" height="125" viewBox="0 0 121 125" fill="none" xmlns="http://www.w3.org/2000/svg">
<path d="M106.25 102.083C110.852 102.083 114.583 98.3524 114.583 93.75C114.583 89.1476 110.852 85.4167 106.25 85.4167C101.648 85.4167 97.9166 89.1476 97.9166 93.75C97.9166 98.3524 101.648 102.083 106.25 102.083Z" fill="#F4F4F4"/>
<path d="M120.833 116.667C120.833 108.613 114.304 102.083 106.25 102.083C98.1958 102.083 91.6666 108.613 91.6666 116.667V125H120.833V116.667Z" fill="#F4F4F4"/>
<path d="M14.5833 102.083C19.1857 102.083 22.9167 98.3524 22.9167 93.75C22.9167 89.1476 19.1857 85.4167 14.5833 85.4167C9.98096 85.4167 6.25 89.1476 6.25 93.75C6.25 98.3524 9.98096 102.083 14.5833 102.083Z" fill="#F4F4F4"/>
<path d="M0 116.667V125H29.1667V116.667C29.1667 108.613 22.6375 102.083 14.5833 102.083C6.52917 102.083 0 108.613 0 116.667Z" fill="#F4F4F4"/>
<path d="M60.4167 102.083C65.0191 102.083 68.75 98.3524 68.75 93.75C68.75 89.1476 65.0191 85.4167 60.4167 85.4167C55.8143 85.4167 52.0834 89.1476 52.0834 93.75C52.0834 98.3524 55.8143 102.083 60.4167 102.083Z" fill="#F4F4F4"/>
<path d="M45.8334 116.667V125H75V116.667C75 108.613 68.4709 102.083 60.4167 102.083C52.3625 102.083 45.8334 108.613 45.8334 116.667Z" fill="#F4F4F4"/>
<path d="M85.4604 12.9625L76.6208 4.12292L74.1979 6.54583C73.5458 7.19792 72.5542 7.31667 71.7312 6.89792C70.5896 6.31667 69.3958 5.82292 68.1604 5.42083C67.2833 5.13542 66.6667 4.35208 66.6667 3.42917V0H54.1667V3.42917C54.1667 4.35208 53.55 5.13542 52.6708 5.42083C51.4354 5.82292 50.2438 6.31667 49.1 6.89792C48.2771 7.31667 47.2875 7.19792 46.6333 6.54583L44.2104 4.12292L35.3708 12.9625L37.7938 15.3854C38.4458 16.0375 38.5646 17.0292 38.1458 17.8521C37.5646 18.9937 37.0708 20.1875 36.6687 21.4229C36.3854 22.3 35.6021 22.9167 34.6792 22.9167H31.25V35.4167H34.6792C35.6021 35.4167 36.3854 36.0333 36.6708 36.9125C37.0729 38.1479 37.5667 39.3396 38.1479 40.4812C38.5667 41.3042 38.4479 42.2937 37.7958 42.9479L35.3729 45.3708L44.2125 54.2104L46.6354 51.7875C47.2875 51.1354 48.2792 51.0167 49.1021 51.4354C50.2437 52.0167 51.4375 52.5104 52.6708 52.9125C53.55 53.1979 54.1667 53.9812 54.1667 54.9042V58.3333H66.6667V54.9042C66.6667 53.9812 67.2833 53.1979 68.1625 52.9125C69.3979 52.5104 70.5896 52.0167 71.7312 51.4354C72.5542 51.0167 73.5438 51.1354 74.1979 51.7875L76.6208 54.2104L85.4604 45.3708L83.0375 42.9479C82.3854 42.2958 82.2667 41.3042 82.6854 40.4812C83.2667 39.3396 83.7604 38.1479 84.1625 36.9125C84.4479 36.0333 85.2312 35.4167 86.1542 35.4167H89.5833V22.9167H86.1542C85.2312 22.9167 84.4479 22.3 84.1625 21.4208C83.7604 20.1854 83.2667 18.9937 82.6854 17.85C82.2667 17.0271 82.3854 16.0375 83.0375 15.3833L85.4604 12.9625ZM60.4167 45.8333C51.2125 45.8333 43.75 38.3708 43.75 29.1667C43.75 19.9625 51.2125 12.5 60.4167 12.5C69.6208 12.5 77.0833 19.9625 77.0833 29.1667C77.0833 38.3708 69.6208 45.8333 60.4167 45.8333Z" fill="#F4F4F4"/>
<path d="M56.25 37.5L68.75 29.1667L56.25 20.8333V37.5Z" fill="#F4F4F4"/>
<path d="M62.5 72.9167H58.3334V77.0833H62.5V72.9167Z" fill="#F4F4F4"/>
<path d="M62.5 64.5833H58.3334V68.75H62.5V64.5833Z" fill="#F4F4F4"/>
<path d="M25 27.0833H20.8334V31.25H25V27.0833Z" fill="#F4F4F4"/>
<path d="M16.6667 27.0833H12.5V31.25H16.6667V27.0833Z" fill="#F4F4F4"/>
<path d="M16.6667 35.4167H12.5V39.5833H16.6667V35.4167Z" fill="#F4F4F4"/>
<path d="M16.6667 43.75H12.5V47.9167H16.6667V43.75Z" fill="#F4F4F4"/>
<path d="M16.6667 52.0833H12.5V56.25H16.6667V52.0833Z" fill="#F4F4F4"/>
<path d="M16.6667 60.4167H12.5V64.5833H16.6667V60.4167Z" fill="#F4F4F4"/>
<path d="M16.6667 68.75H12.5V72.9167H16.6667V68.75Z" fill="#F4F4F4"/>
<path d="M100 27.0833H95.8334V31.25H100V27.0833Z" fill="#F4F4F4"/>
<path d="M108.333 27.0833H104.167V31.25H108.333V27.0833Z" fill="#F4F4F4"/>
<path d="M108.333 35.4167H104.167V39.5833H108.333V35.4167Z" fill="#F4F4F4"/>
<path d="M108.333 43.75H104.167V47.9167H108.333V43.75Z" fill="#F4F4F4"/>
<path d="M108.333 52.0833H104.167V56.25H108.333V52.0833Z" fill="#F4F4F4"/>
<path d="M108.333 60.4167H104.167V64.5833H108.333V60.4167Z" fill="#F4F4F4"/>
<path d="M108.333 68.75H104.167V72.9167H108.333V68.75Z" fill="#F4F4F4"/>
</svg>
