<svg width="220" height="125" viewBox="0 0 220 125" fill="none" xmlns="http://www.w3.org/2000/svg">
<path fill-rule="evenodd" clip-rule="evenodd" d="M29.6032 0C13.2949 0 0 13.3002 0 29.4482C0 44.6341 11.6438 57.1867 26.5034 58.7413C32.8408 71.5646 39.3394 80.4695 46.3422 86.1747C53.7753 92.2305 61.919 94.5226 69.7458 93.7692C85.3995 92.2625 99.0979 80.4046 112.523 69.2033C125.949 58.0021 139.142 47.3767 150.341 45.4898C155.94 44.5462 160.998 45.3188 166.693 49.287C171.42 52.582 176.561 58.3128 181.804 67.1885C169.273 70.6303 159.95 81.9998 159.95 95.4741C159.95 111.724 173.323 125 189.631 125C205.861 125 219.234 111.724 219.234 95.4741C219.234 80.3128 207.494 67.6951 192.653 66.1809C192.628 66.1784 192.601 66.1834 192.576 66.1809C186.134 54.2665 179.581 46.1358 172.427 41.15C166.721 37.1733 160.57 35.3794 154.603 35.2604C152.614 35.2207 150.657 35.32 148.714 35.6479C133.17 38.2671 119.544 50.4498 106.169 61.6088C92.7938 72.7679 79.7327 82.7991 68.816 83.8498C63.3576 84.3753 58.2825 83.1798 52.542 78.5028C47.6857 74.5464 42.5153 67.8826 37.1979 57.889C49.8276 54.5163 59.2066 43.0534 59.2066 29.4482C59.2066 13.3002 45.9117 0 29.6033 0H29.6032ZM29.6032 9.9194C40.5736 9.9194 49.287 18.7055 49.287 29.4482C49.287 40.308 40.5736 48.9771 29.6032 48.9771C18.6329 48.9771 9.9194 40.308 9.9194 29.4482C9.9194 18.7055 18.6329 9.9194 29.6032 9.9194ZM189.631 75.9453C200.484 75.9453 209.315 84.7555 209.315 95.4741C209.315 106.31 200.484 115.081 189.631 115.081C178.661 115.081 169.87 106.31 169.87 95.4741C169.87 84.7555 178.661 75.9453 189.631 75.9453Z" fill="#F4F4F4"/>
</svg>
