<svg width="125" height="125" viewBox="0 0 125 125" fill="none" xmlns="http://www.w3.org/2000/svg">
<path d="M62.5 6.6653C93.2859 6.6653 118.336 31.7142 118.336 62.5013C118.336 93.2884 93.2859 118.337 62.5 118.337C31.7142 118.337 6.66401 93.2871 6.66401 62.5013C6.66401 31.7154 31.7142 6.6653 62.5 6.6653ZM62.5 0C27.9778 0 0 27.9791 0 62.5C0 97.0209 27.9791 125 62.5 125C97.0209 125 125 97.0209 125 62.5C125 27.9791 97.0222 0 62.5 0Z" fill="#F4F4F4"/>
<path d="M66.0447 59.0708C56.1034 55.8076 53.312 50.0539 53.9433 46.1144C54.5129 42.5465 58.077 38.9412 64.7461 38.9412C73.3323 38.9412 75.1465 47.08 75.3265 48.0392C75.7328 50.3021 77.9957 51.7627 80.1442 51.404C82.4148 51.0054 83.7109 48.844 83.3136 46.5786C82.4534 41.6722 78.5717 32.8867 68.2858 30.9799V23.7643C68.2858 21.4616 66.7313 19.5972 64.4286 19.5972C62.1245 19.5972 60.5713 21.4616 60.5713 23.7643V31.0056C52.8569 32.4495 46.9386 37.7198 45.8084 44.8004C44.6615 51.9748 48.5689 62.0898 63.4938 66.9885C71.342 69.5651 75.5927 73.691 74.9009 78.0368C74.3069 81.7719 69.794 85.6459 63.292 85.6459C52.151 85.6459 51.3513 79.5823 51.3075 78.4431C51.3075 76.1404 49.4419 74.2773 47.1379 74.2773C44.8351 74.2773 43.0634 76.1404 43.0634 78.4431C43.0634 83.4768 46.4281 92.7188 60.5713 93.8618V99.7158C60.5713 102.02 62.1245 103.883 64.4286 103.883C66.7313 103.883 68.2858 102.02 68.2858 99.7158V93.3385C76.0002 91.5384 81.8131 86.119 82.8893 79.3457C83.419 76.0748 83.9436 64.9377 66.0447 59.0708Z" fill="#F4F4F4"/>
</svg>
