<svg width="111" height="125" viewBox="0 0 111 125" fill="none" xmlns="http://www.w3.org/2000/svg">
<path d="M16.6106 67.4538H52.7318V83.9773H57.4545V67.4538H93.5795V83.9773H98.2983V65.0905C98.2983 63.7858 97.2397 62.7311 95.9389 62.7311H57.4506V51.3991H52.7279V62.7311H14.2512C12.9465 62.7311 11.8918 63.7897 11.8918 65.0905V83.9773H16.6145V67.4538H16.6106Z" fill="#F4F4F4"/>
<path d="M35.6946 50.8595H47.4251V39.3243H62.761V50.8595H74.4915C75.7962 50.8595 76.8509 49.8009 76.8509 48.4962V2.35938C76.8509 1.0586 75.7923 0 74.4915 0H35.6946C34.3938 0 33.3352 1.0586 33.3352 2.35938V48.4962C33.3391 49.797 34.3938 50.8595 35.6946 50.8595ZM64.3821 5.2422H70.6556V11.2696H64.3821V5.2422ZM64.3821 17.043H70.6556V23.0625H64.3821V17.043ZM64.3821 28.8399H70.6556V34.8672H64.3821V28.8399ZM51.9563 5.2422H58.2259V11.2696H51.9563V5.2422ZM51.9563 17.043H58.2259V23.0625H51.9563V17.043ZM51.9563 28.8399H58.2259V34.8672H51.9563V28.8399ZM39.5305 5.2422H45.804V11.2696H39.5305V5.2422ZM39.5305 17.043H45.804V23.0625H39.5305V17.043ZM39.5305 28.8399H45.804V34.8672H39.5305V28.8399Z" fill="#F4F4F4"/>
<path d="M25.961 88.8828H2.53906C1.13672 88.8828 0 90.0195 0 91.4179V122.457C0 123.859 1.13672 124.996 2.53906 124.996H10.4375V118.227H18.0625V125H25.961C27.3633 125 28.4961 123.863 28.4961 122.461V91.4218C28.4961 90.0195 27.3633 88.8828 25.961 88.8828ZM11.0039 113.152H5.07813V106.941H11.0039V113.152ZM11.0039 101.297H5.07813V95.0898H11.0039V101.297ZM23.4219 113.152H17.4922V106.941H23.4219V113.152ZM23.4219 101.297H17.4922V95.0898H23.4219V101.297Z" fill="#F4F4F4"/>
<path d="M66.805 88.8828H43.3831C41.9846 88.8828 40.8479 90.0195 40.8479 91.4179V122.457C40.8479 123.859 41.9846 124.996 43.3831 124.996H51.2854V118.227H58.9026V125H66.8011C68.1995 125 69.3401 123.863 69.3401 122.461V91.4218C69.344 90.0195 68.2034 88.8828 66.805 88.8828ZM51.8479 113.152H45.9221V106.941H51.8479V113.152ZM51.8479 101.297H45.9221V95.0898H51.8479V101.297ZM64.2659 113.152H58.3401V106.941H64.2659V113.152ZM64.2659 101.297H58.3401V95.0898H64.2659V101.297Z" fill="#F4F4F4"/>
<path d="M107.648 88.8828H84.2256C82.8272 88.8828 81.6904 90.0195 81.6904 91.4179V122.457C81.6904 123.859 82.8272 124.996 84.2256 124.996H92.128V118.227H99.7451V125H107.644C109.046 125 110.183 123.863 110.183 122.461V91.4218C110.187 90.0195 109.05 88.8828 107.648 88.8828ZM92.6944 113.152H86.7647V106.941H92.6944V113.152ZM92.6944 101.297H86.7647V95.0898H92.6944V101.297ZM105.108 113.152H99.1827V106.941H105.108V113.152ZM105.108 101.297H99.1827V95.0898H105.108V101.297Z" fill="#F4F4F4"/>
</svg>
